PathFileType	4	(X/Y/Z)	 s01c0401.trc
DataRate	CameraRate	NumFrames	NumMarkers	Units	OrigDataRate	OrigDataStartFrame	OrigNumFrames
200	200	6	48	mm	200	1251	2000
Frame#	Time	racr			lacr			c7			jug			rlel			rdr			llel			ldr			s2			lic			ric			lasi			rasi			rpsi			lpsi			rgt			lgt			rth1			rth2			rth3			rth4			rlfc			rsh1			rsh2			rsh3			rsh4			rlmal			rmmal			rcal			rtoe			rmt5			lth1			lth2			lth4			lth3			llfc			lsh1			lsh2			lsh3			lsh4			llmal			lmmal			lcal			ltoe			lmt5			SBIKE			LBIKE			RBIKE			
		X1	Y1	Z1	X2	Y2	Z2	X3	Y3	Z3	X4	Y4	Z4	X5	Y5	Z5	X6	Y6	Z6	X7	Y7	Z7	X8	Y8	Z8	X9	Y9	Z9	X10	Y10	Z10	X11	Y11	Z11	X12	Y12	Z12	X13	Y13	Z13	X14	Y14	Z14	X15	Y15	Z15	X16	Y16	Z16	X17	Y17	Z17	X18	Y18	Z18	X19	Y19	Z19	X20	Y20	Z20	X21	Y21	Z21	X22	Y22	Z22	X23	Y23	Z23	X24	Y24	Z24	X25	Y25	Z25	X26	Y26	Z26	X27	Y27	Z27	X28	Y28	Z28	X29	Y29	Z29	X30	Y30	Z30	X31	Y31	Z31	X32	Y32	Z32	X33	Y33	Z33	X34	Y34	Z34	X35	Y35	Z35	X36	Y36	Z36	X37	Y37	Z37	X38	Y38	Z38	X39	Y39	Z39	X40	Y40	Z40	X41	Y41	Z41	X42	Y42	Z42	X43	Y43	Z43	X44	Y44	Z44	X45	Y45	Z45	X46	Y46	Z46	X47	Y47	Z47	X48	Y48	Z48	
1251	6.2550	727.383339	1268.052416	-30.770946	751.146677	1247.185862	-413.034542	741.791291	1371.183926	-216.975442	716.419508	1203.613780	-216.018970	551.308362	1049.586911	78.489002	699.550467	891.164713	-29.034543	569.672284	1059.646580	-557.994153	696.606566	888.009855	-449.174691	197.924514	1204.398536	-248.809412	374.877871	1202.299977	-413.507586	341.848511	1188.105061	-79.399791	371.706359	1144.796209	-384.488136	370.099536	1140.967358	-110.751400	229.779164	1238.748347	-194.030451	231.981478	1247.836717	-298.667356	281.001847	1072.070247	-64.544172	318.906628	1073.292716	-437.220867	344.381672	952.209400	-48.176367	387.943701	881.939990	-53.547421	429.972951	802.553068	-65.700613	437.067634	908.315720	-62.665602	464.072836	692.770199	-87.279180	407.597276	585.841127	-55.796958	380.198419	505.775422	-62.781007	343.722224	425.548573	-74.972308	424.210851	491.244066	-100.970346	278.076443	320.521129	-96.874442	320.989003	324.161926	-173.227835	230.633243	311.522986	-150.741647	472.822654	191.484174	-128.153687	362.962263	201.345472	-62.198905	384.285572	969.633359	-451.947104	451.278335	914.520649	-442.254481	485.248087	954.434838	-425.541535	509.258568	853.259641	-427.759189	545.334898	755.527260	-406.489284	435.000789	722.274284	-442.500430	358.542307	682.216105	-437.243357	281.427077	645.824650	-425.357770	385.159369	635.018989	-406.691303	169.226476	596.156481	-413.131652	189.854276	575.338442	-333.116189	117.843182	618.152262	-370.205784	225.256464	362.173610	-369.534768	160.441227	444.648619	-437.260952	-270.448776	878.099543	-264.864800	-11.929871	84.621682	-453.461967	-20.240898	80.833262	-53.564637	
1252	6.2600	727.982329	1268.518948	-32.947012	750.588725	1247.771980	-415.198456	741.461549	1371.993881	-219.148701	716.983130	1204.697699	-217.974952	552.310300	1050.493841	77.363799	699.716531	891.065372	-28.816364	568.972458	1059.575373	-559.257813	696.442381	888.158551	-449.655986	198.014351	1203.197403	-247.063478	373.555012	1202.237101	-413.334649	342.600929	1186.704431	-78.837636	371.169987	1144.751755	-384.133947	370.677885	1139.236020	-110.176955	230.116746	1237.357242	-192.349909	231.634369	1246.901260	-297.025857	280.794933	1069.909411	-64.255236	318.954621	1074.288834	-437.213585	341.439562	949.532386	-48.147027	383.248269	878.131380	-53.275640	423.236894	797.847240	-65.459130	432.942374	903.338224	-62.422210	454.876323	686.658209	-87.344114	399.054001	579.425640	-55.512986	372.386363	499.117639	-62.608567	336.506118	418.608331	-74.733451	416.539396	484.868907	-100.919550	271.889819	313.713211	-97.140586	314.581731	317.202261	-172.900239	224.779524	306.086835	-150.121958	465.193828	182.129640	-128.469826	355.599655	193.711459	-62.344828	386.708793	972.955460	-452.522230	455.124773	919.491637	-443.751996	488.743564	960.238159	-425.758756	514.837228	859.374172	-429.529576	553.264931	762.987049	-408.427950	443.137525	729.458065	-443.711938	366.740752	689.581253	-438.071301	289.356390	653.430123	-426.102347	393.399990	642.207619	-407.642241	177.741004	603.470433	-413.248023	198.667368	582.824768	-332.904953	126.329556	625.643696	-370.073186	233.355120	369.573961	-369.358396	168.745667	452.108679	-437.160694	-270.409940	878.059141	-264.873336	-11.927045	84.610387	-453.463274	-20.229179	80.801745	-53.576531	
1253	6.2650	728.507360	1269.135347	-35.276047	749.927428	1248.259201	-417.489280	741.176656	1372.775658	-221.451192	717.569252	1205.943963	-219.450991	553.342744	1051.538635	76.211589	699.778590	890.853526	-28.366614	568.121216	1059.555829	-560.739739	696.152818	888.304264	-450.121266	198.200555	1202.171024	-245.237274	372.072005	1202.313126	-413.208278	343.482569	1185.348585	-78.406583	370.595053	1144.976149	-384.082325	371.375648	1137.550743	-109.729887	230.582879	1236.070392	-190.586125	231.338274	1246.064401	-295.210319	280.726934	1067.921383	-63.925166	318.758445	1075.448854	-437.313897	338.463347	947.107222	-47.909817	378.427809	874.633299	-52.917024	416.427104	793.468608	-65.104902	428.691325	898.589187	-62.233814	445.290867	680.938424	-87.042212	390.321746	573.569445	-55.169703	364.093825	493.141339	-62.326438	328.710750	412.418957	-74.373411	408.488522	479.123845	-100.460955	265.373834	307.520383	-97.397481	307.941866	310.787696	-172.291301	218.572274	301.131352	-150.001926	457.175676	173.396559	-128.821191	347.796908	186.544771	-62.457693	388.950489	976.404320	-453.265094	458.723231	924.565354	-445.116536	491.305798	966.067752	-426.997104	519.615533	865.558109	-431.980984	561.025221	770.494951	-410.568698	451.372871	736.685985	-444.992028	375.075058	696.806055	-438.946367	297.528411	660.806099	-426.840470	401.847225	649.470630	-408.506249	186.445223	610.394756	-413.313908	207.808099	589.993106	-332.567729	135.051251	632.625887	-369.846114	241.955908	376.410273	-369.216628	177.473013	459.143760	-437.098148	-270.323620	878.026510	-264.703557	-11.924784	84.609558	-453.461360	-20.216400	80.792312	-53.561707	
1254	6.2700	728.968035	1269.684996	-37.702613	749.153982	1248.663977	-419.923473	741.039087	1373.402617	-223.862641	718.067312	1206.950622	-221.742740	554.556387	1052.639874	75.110788	699.856283	890.552916	-27.712128	567.202287	1059.287817	-562.091435	695.921819	888.486167	-450.502510	198.431248	1201.193832	-243.371299	370.475372	1202.537704	-413.137683	344.512633	1183.916253	-78.211754	369.941653	1145.448154	-384.065905	372.178552	1135.945546	-109.474849	231.189151	1234.859960	-188.842155	231.084860	1245.320056	-293.330472	280.764892	1066.172142	-63.582406	318.296130	1076.920989	-437.475819	335.382202	945.002205	-47.506197	373.561694	871.533707	-52.576525	409.568635	789.454502	-64.595085	424.008843	894.419886	-62.083416	435.479148	675.670185	-86.487936	381.346431	568.469454	-54.773713	355.556230	487.938086	-61.899130	320.575034	407.076697	-73.867946	400.385856	474.133915	-99.926593	258.372526	301.882415	-97.515531	300.718343	304.936325	-171.655861	212.025144	296.623726	-149.757613	448.606340	165.028211	-129.365293	339.487177	179.868692	-62.613578	391.060774	979.879105	-454.082049	461.765405	929.634399	-446.994363	493.502488	971.796557	-428.748080	523.981444	871.860504	-434.459404	568.665474	777.945568	-412.916895	459.629424	744.019517	-446.321449	383.361758	703.964153	-439.797916	305.745135	667.985229	-427.598563	410.526067	656.886416	-409.971616	195.416550	616.842815	-413.237710	217.192573	596.750290	-332.311735	143.857893	639.067141	-369.564531	249.846014	382.508866	-368.258058	186.571411	465.708553	-437.013253	-270.382774	878.071115	-264.820641	-11.920941	84.610389	-453.454596	-20.192441	80.740897	-53.536943	
1255	6.2750	729.394751	1270.077881	-41.728007	748.434408	1249.032406	-422.460151	741.008177	1374.086240	-226.380575	718.475886	1207.842291	-223.998958	555.614444	1053.724682	73.939965	699.894845	890.161004	-26.964083	566.192520	1058.910557	-563.416808	695.648142	888.649667	-450.777984	198.641150	1200.362854	-241.400124	368.776748	1202.948131	-413.110266	345.732338	1182.461024	-78.279038	369.258493	1146.191570	-384.153978	373.097223	1134.473231	-109.392121	231.940003	1233.709833	-187.128229	230.843866	1244.672080	-291.383042	280.938694	1064.558259	-63.231449	317.698879	1078.546796	-437.649492	332.268186	943.108138	-47.095523	368.596517	868.776401	-52.131727	402.701959	785.840567	-64.037173	419.441197	890.232289	-61.480264	425.630603	671.048488	-85.697768	372.270880	564.134432	-54.226245	346.815581	483.509221	-61.307441	312.155629	402.539008	-73.308033	391.867672	469.714295	-99.117073	250.297787	297.485052	-96.741549	292.487730	299.327856	-171.210725	205.202538	292.869154	-149.420973	439.672624	157.346964	-129.874040	330.884014	173.827866	-62.731196	392.990230	983.352469	-455.003544	464.501109	934.912961	-448.830979	494.979701	977.460636	-430.660639	529.482854	879.220154	-435.170084	576.199119	785.517078	-415.159011	467.779732	751.404408	-447.644943	391.745435	711.181371	-440.743111	314.220702	674.968628	-428.200086	419.204664	664.121848	-410.932062	204.453803	622.901385	-413.123405	226.654082	603.098290	-332.084283	152.632187	644.961876	-369.268366	259.281475	388.562931	-367.868985	195.979187	471.799681	-436.918593	-270.371833	878.061405	-264.698487	-11.913996	84.627310	-453.450019	-20.199576	80.730865	-53.540961	
1256	6.2800	729.866901	1270.619874	-44.019167	747.716572	1249.343194	-425.023160	741.072057	1374.618601	-228.934151	718.781853	1208.596409	-226.375478	556.601472	1055.000938	72.890721	699.942073	889.771367	-26.220093	565.245080	1058.402716	-564.757472	695.375386	888.808498	-450.977608	198.900634	1199.759331	-239.409305	367.020541	1203.541195	-413.143705	347.214922	1181.147859	-78.435102	368.528298	1147.149031	-384.314151	374.108076	1133.159548	-109.492899	232.475137	1232.962965	-185.180718	230.626667	1244.115720	-289.422305	281.185134	1063.228202	-62.894699	316.862167	1080.307918	-437.879494	329.212260	941.653203	-46.547406	363.724502	866.334522	-51.623694	395.828219	782.628972	-63.385097	415.470196	886.504588	-61.607737	416.091411	667.204838	-84.883894	363.147825	560.615578	-53.614360	337.941057	479.821689	-60.618871	303.632186	398.842400	-72.546277	383.297398	466.096053	-97.985703	242.841105	293.176629	-96.814078	284.650624	294.782589	-170.401893	198.182171	289.714318	-148.968359	430.371439	150.091515	-130.361249	321.958363	168.338986	-62.805191	394.686977	986.709334	-456.089897	468.218513	940.409644	-449.609441	496.981343	983.399138	-432.655863	533.954281	886.213908	-437.432961	583.430734	793.365622	-417.485194	475.766435	758.855999	-448.945453	399.993568	718.206815	-441.475452	322.471843	681.743801	-428.844812	427.874038	671.304386	-411.984866	213.403581	628.470286	-412.958252	236.217058	608.954310	-331.892092	161.385346	650.324069	-368.945603	269.547839	394.473746	-367.832367	205.660777	477.383159	-436.842480	-270.377500	878.067791	-264.662669	-11.913706	84.639235	-453.442562	-20.187317	80.738657	-53.523314	
